<?xml version="1.0" encoding="utf-8"?>
<!-- Generator: Adobe Illustrator 18.1.1, SVG Export Plug-In . SVG Version: 6.00 Build 0)  -->
<!DOCTYPE svg PUBLIC "-//W3C//DTD SVG 1.1//EN" "http://www.w3.org/Graphics/SVG/1.1/DTD/svg11.dtd">
<svg version="1.1" id="Layer_1" xmlns="http://www.w3.org/2000/svg" xmlns:xlink="http://www.w3.org/1999/xlink" x="0px" y="0px"
	 viewBox="0 0 230 72" enable-background="new 0 0 230 72" xml:space="preserve">
<g>
	<g>
		<g>
			<path fill="#3A7D9C" d="M34.1,58C15.3,58,0,42.9,0,24.2c0-9,3.5-17.5,10-23.9c0.9-0.9,2.4-0.9,3.3,0c0.9,0.9,0.9,2.4,0,3.3
				C7.7,9.1,4.6,16.4,4.6,24.2c0,16.1,13.2,29.2,29.4,29.2c7.9,0,15.2-3,20.8-8.5c0.9-0.9,2.4-0.9,3.3,0c0.9,0.9,0.9,2.4,0,3.3
				C51.7,54.5,43.2,58,34.1,58z"/>
		</g>
		<path fill="#34485F" d="M33.7,0.8c-6.6,0-12.6,2.7-17,7c-4.3,4.3-7,10.3-7,16.8c0,13.2,10.7,23.8,24,23.8c6.6,0,12.6-2.7,17-7
			c4.3-4.3,7-10.3,7-16.8C57.7,11.5,46.9,0.8,33.7,0.8z"/>
		<g>
			<path fill="#34485F" d="M47.6,67.2c0,1-0.8,1.9-1.9,1.9H21.6c-1,0-1.9-0.8-1.9-1.9v-2.5c0-1,0.8-1.9,1.9-1.9h24.2
				c1,0,1.9,0.8,1.9,1.9V67.2z"/>
		</g>
		<g>
			<g>
				<path fill="#FFFFFF" d="M25.6,34.8c0,0.9-0.7,1.6-1.6,1.6h-1.3c-0.9,0-1.6-0.7-1.6-1.6V19.7c0-0.9,0.7-1.6,1.6-1.6h1.3
					c0.9,0,1.6,0.7,1.6,1.6V34.8z"/>
			</g>
			<g>
				<path fill="#FFFFFF" d="M36,34.8c0,0.9-0.7,1.6-1.6,1.6h-1.3c-0.9,0-1.6-0.7-1.6-1.6V11.6c0-0.9,0.7-1.6,1.6-1.6h1.3
					c0.9,0,1.6,0.7,1.6,1.6V34.8z"/>
			</g>
			<g>
				<path fill="#FFFFFF" d="M46.3,34.8c0,0.9-0.7,1.6-1.6,1.6h-1.3c-0.9,0-1.6-0.7-1.6-1.6V23.5c0-0.9,0.7-1.6,1.6-1.6h1.3
					c0.9,0,1.6,0.7,1.6,1.6V34.8z"/>
			</g>
		</g>
	</g>
	<g>
		<path fill="#34485F" d="M92.3,22.1c-0.2,1.9-0.8,2.4-2.8,2.4h-11v0.6c0,2.2,1.7,3.3,5.7,3.3c1.6,0,3.3-0.2,5.2-0.6
			c1.9-0.4,2.3,0,2.3,2.1v0.5c0,1.9-0.4,2.3-2.3,2.8c-1.4,0.4-3.2,0.6-5.3,0.6c-7.7,0-11.3-2.8-11.3-9.4v-3.4
			c0-6.4,3.4-9.7,10.1-9.7c6.3,0,9.5,3.1,9.5,9.3C92.4,21,92.4,21.5,92.3,22.1z M78.5,19.9H87v-0.6c0-2.2-1.4-3.3-4.3-3.3
			c-2.8,0-4.2,1.1-4.2,3.3V19.9z"/>
		<path fill="#E94A34" d="M120.1,22.2c0,5.7-1.8,9.4-6.9,10.8l4.6,4.3c1.4,1.4,1.3,1.7-0.7,1.7h-2.5c-1.9,0-2.9-0.3-4.2-1.8
			l-3.2-3.6c-4.1-0.1-7-1.2-8.6-3.1c-1.6-2-2.4-4.7-2.4-8.2v-6c0-3.7,0.9-6.5,2.6-8.5s4.8-3,9.3-3s7.5,1,9.3,3s2.6,4.8,2.6,8.5V22.2
			z M114.3,16.2c0-2.1-0.4-3.7-1.2-4.6c-0.8-0.9-2.4-1.4-4.9-1.4s-4.1,0.5-4.9,1.4c-0.8,0.9-1.2,2.5-1.2,4.6v6
			c0,2.1,0.4,3.7,1.2,4.6c0.8,0.9,2.4,1.4,4.9,1.4s4.1-0.5,4.9-1.4c0.8-0.9,1.2-2.5,1.2-4.6V16.2z"/>
		<path fill="#E94A34" d="M130,24.9c0,2.4,0.9,3.4,4.2,3.4c3.3,0,4.1-1,4.1-3.4V14c0-1.9,0.5-2.4,2.4-2.4h0.8c1.9,0,2.4,0.5,2.4,2.4
			v10.9c0,5.8-3,8.7-9.8,8.7c-6.5,0-9.9-3-9.9-8.7V14c0-1.9,0.5-2.4,2.4-2.4h0.8c1.9,0,2.4,0.5,2.4,2.4V24.9z"/>
		<path fill="#E94A34" d="M173.4,30.7c0.5,1.9,0.2,2.4-1.9,2.4h-0.8c-2,0-2.6-0.5-3.2-2.4l-1.1-4.4H155l-1.1,4.4
			c-0.5,1.9-1.1,2.4-3.2,2.4h-0.8c-2,0-2.4-0.5-1.9-2.4l4.8-17.8c0.9-3.2,1.3-4.6,2.5-6.1c1.2-1.5,2.7-2.1,5.3-2.1
			c2.6,0,4.2,0.5,5.3,2.1s1.6,2.9,2.5,6.1L173.4,30.7z M156.4,21.2h8.7l-2.1-8c-0.4-1.4-0.7-2.3-0.9-2.7c-0.2-0.4-0.7-0.6-1.3-0.6
			c-0.6,0-1.1,0.2-1.3,0.6c-0.2,0.4-0.5,1.2-0.9,2.7L156.4,21.2z"/>
		<path fill="#E94A34" d="M172.2,7.7c0-1.9,0.5-2.5,2.5-2.5h17.4c1.9,0,2.5,0.6,2.5,2.5V8c0,2-0.6,2.5-2.5,2.5h-5.8v20.1
			c0,1.9-0.6,2.5-2.5,2.5H183c-2,0-2.5-0.6-2.5-2.5V10.5h-5.8c-2,0-2.5-0.5-2.5-2.5V7.7z"/>
		<path fill="#E94A34" d="M199.1,7.7c0-1.9,0.5-2.5,2.5-2.5h0.8c2,0,2.5,0.6,2.5,2.5v22.9c0,1.9-0.5,2.5-2.5,2.5h-0.8
			c-2,0-2.5-0.6-2.5-2.5V7.7z"/>
		<path fill="#E94A34" d="M216.4,22.8c0,3.4,1.6,5.4,6.5,5.4c1.6,0,3.1-0.2,4.7-0.6c1.9-0.5,2.4-0.1,2.4,1.9v0.3
			c0,1.9-0.5,2.4-2.4,3.1c-1.3,0.4-2.9,0.6-5,0.6c-8.1,0-12.3-3.2-12.3-10.8V16c0-7,4.1-11.2,12.3-11.2c2,0,3.6,0.3,4.9,0.7
			c1.9,0.7,2.4,1.2,2.4,3.1v0.3c0,2-0.6,2.5-2.5,1.9c-1.6-0.5-3.2-0.7-4.8-0.7c-4.5,0-6.3,1.8-6.3,5.8V22.8z"/>
	</g>
	<g>
		<path fill="#3A7D9C" d="M74.1,54.1c-0.4-0.5-0.6-1.3-0.6-2.3v-1.7c0-1,0.2-1.8,0.6-2.3s1.2-0.7,2.3-0.7c1.1,0,1.9,0.3,2.3,0.7
			c0.4,0.5,0.6,1.3,0.6,2.3v1.7c0,1-0.2,1.8-0.6,2.3c-0.4,0.5-1.2,0.7-2.3,0.7C75.3,54.8,74.6,54.6,74.1,54.1z M78.5,50.2
			c0-0.8-0.1-1.3-0.4-1.7c-0.3-0.3-0.8-0.5-1.6-0.5c-0.8,0-1.4,0.2-1.6,0.5c-0.3,0.3-0.4,0.9-0.4,1.7v1.7c0,0.8,0.1,1.3,0.4,1.7
			c0.3,0.3,0.8,0.5,1.6,0.5c0.8,0,1.4-0.2,1.6-0.5c0.3-0.3,0.4-0.9,0.4-1.7V50.2z"/>
		<path fill="#3A7D9C" d="M81.6,54.3c0,0.3-0.1,0.4-0.4,0.4h-0.1c-0.3,0-0.4-0.1-0.4-0.4v-3.3c0-1.4,0.8-2.1,2.4-2.1
			c1.7,0,2.4,0.8,2.4,2.1v3.3c0,0.3-0.1,0.4-0.4,0.4h-0.1c-0.3,0-0.4-0.1-0.4-0.4v-3.3c0-0.9-0.4-1.3-1.5-1.3
			c-1.2,0-1.5,0.4-1.5,1.3V54.3z"/>
		<path fill="#3A7D9C" d="M87,47c0-0.3,0.1-0.4,0.4-0.4h0.1c0.3,0,0.4,0.1,0.4,0.4v6c0,0.6,0.2,0.9,0.6,0.9h0.1c0.3,0,0.4,0,0.4,0.3
			v0.1c0,0.3-0.1,0.4-0.3,0.4c-0.1,0-0.1,0-0.2,0c-0.8,0-1.3-0.5-1.3-1.5V47z"/>
		<path fill="#3A7D9C" d="M90.9,47.3c0,0.3-0.2,0.6-0.6,0.6c-0.3,0-0.6-0.2-0.6-0.6c0-0.3,0.3-0.6,0.6-0.6
			C90.7,46.7,90.9,47,90.9,47.3z M89.9,49.4c0-0.3,0.1-0.4,0.4-0.4h0.1c0.3,0,0.4,0.1,0.4,0.4v4.9c0,0.3-0.1,0.4-0.4,0.4h-0.1
			c-0.3,0-0.4-0.1-0.4-0.4V49.4z"/>
		<path fill="#3A7D9C" d="M93.1,54.3c0,0.3-0.1,0.4-0.4,0.4h-0.1c-0.3,0-0.4-0.1-0.4-0.4v-3.3c0-1.4,0.8-2.1,2.4-2.1
			c1.7,0,2.4,0.8,2.4,2.1v3.3c0,0.3-0.1,0.4-0.4,0.4h-0.1c-0.3,0-0.4-0.1-0.4-0.4v-3.3c0-0.9-0.4-1.3-1.5-1.3
			c-1.2,0-1.5,0.4-1.5,1.3V54.3z"/>
		<path fill="#3A7D9C" d="M103.1,51.9c0,0.3-0.1,0.4-0.4,0.4h-3.5v0.3c0,1,0.5,1.5,1.8,1.5c0.5,0,1-0.1,1.6-0.2
			c0.3-0.1,0.4,0,0.4,0.3v0.1c0,0.2,0,0.3-0.4,0.4c-0.5,0.1-1,0.2-1.6,0.2c-1.8,0-2.7-0.7-2.7-2.4v-1.1c0-1.6,0.8-2.4,2.4-2.4
			c1.5,0,2.4,0.8,2.4,2.3C103.1,51.5,103.1,51.7,103.1,51.9z M99.2,51.5h3.1v-0.4c0-0.9-0.5-1.4-1.6-1.4c-1,0-1.6,0.5-1.6,1.4V51.5z
			"/>
		<path fill="#3A7D9C" d="M113.5,51.8c0,1.6-0.5,2.6-1.9,2.9l1.2,1.1c0.3,0.3,0.3,0.4-0.2,0.4h-0.2c-0.4,0-0.6-0.1-0.9-0.4l-0.9-1
			c-0.3,0-0.5,0-0.7-0.1c-1.7-0.2-2.3-1.1-2.3-2.9v-1.7c0-1,0.2-1.8,0.6-2.3c0.4-0.5,1.2-0.7,2.3-0.7c1.1,0,1.9,0.3,2.3,0.7
			c0.4,0.5,0.6,1.3,0.6,2.3V51.8z M112.6,50.2c0-0.8-0.1-1.3-0.4-1.7c-0.3-0.3-0.8-0.5-1.6-0.5c-0.8,0-1.4,0.2-1.6,0.5
			c-0.3,0.3-0.4,0.9-0.4,1.7v1.7c0,0.8,0.1,1.3,0.4,1.7c0.3,0.3,0.8,0.5,1.6,0.5c0.8,0,1.4-0.2,1.6-0.5c0.3-0.3,0.4-0.9,0.4-1.7
			V50.2z"/>
		<path fill="#3A7D9C" d="M115.7,52.7c0,0.9,0.4,1.3,1.5,1.3c1.2,0,1.5-0.4,1.5-1.3v-3.3c0-0.3,0.1-0.4,0.4-0.4h0.1
			c0.3,0,0.4,0.1,0.4,0.4v3.3c0,1.4-0.7,2.1-2.4,2.1c-1.6,0-2.4-0.7-2.4-2.1v-3.3c0-0.3,0.1-0.4,0.4-0.4h0.1c0.3,0,0.4,0.1,0.4,0.4
			V52.7z"/>
		<path fill="#3A7D9C" d="M125.4,53c0,1.3-0.8,1.8-2.4,1.8c-1.3,0-2.2-0.5-2.2-1.7c0-1.2,0.8-1.7,2.4-1.7h1.4v-0.7
			c0-0.8-0.5-1-1.5-1c-0.5,0-0.9,0-1.3,0.1c-0.3,0.1-0.4,0-0.4-0.3v-0.1c0-0.3,0.1-0.3,0.3-0.4c0.4-0.1,0.8-0.1,1.2-0.1
			c1.6,0,2.4,0.6,2.4,1.8V53z M124.5,52.1h-1.4c-1,0-1.5,0.3-1.5,1c0,0.7,0.4,1,1.3,1c1.1,0,1.6-0.2,1.6-1.1V52.1z"/>
		<path fill="#3A7D9C" d="M126.7,47c0-0.3,0.1-0.4,0.4-0.4h0.1c0.3,0,0.4,0.1,0.4,0.4v6c0,0.6,0.2,0.9,0.6,0.9h0.1
			c0.3,0,0.4,0,0.4,0.3v0.1c0,0.3-0.1,0.4-0.3,0.4c-0.1,0-0.1,0-0.2,0c-0.8,0-1.3-0.5-1.3-1.5V47z"/>
		<path fill="#3A7D9C" d="M130.6,47.3c0,0.3-0.2,0.6-0.6,0.6c-0.3,0-0.6-0.2-0.6-0.6c0-0.3,0.3-0.6,0.6-0.6
			C130.4,46.7,130.6,47,130.6,47.3z M129.6,49.4c0-0.3,0.1-0.4,0.4-0.4h0.1c0.3,0,0.4,0.1,0.4,0.4v4.9c0,0.3-0.1,0.4-0.4,0.4H130
			c-0.3,0-0.4-0.1-0.4-0.4V49.4z"/>
		<path fill="#3A7D9C" d="M131.6,49.5c0-0.3,0.1-0.3,0.3-0.4l0.7-0.1l0.1-1.2c0-0.2,0.1-0.3,0.3-0.3h0.1c0.2,0,0.3,0.1,0.3,0.3v1.2
			h1.9c0.3,0,0.4,0.1,0.4,0.4v0.1c0,0.3-0.1,0.4-0.4,0.4h-1.9v2.9c0,0.9,0.4,1.2,1.1,1.2c0.4,0,0.8,0,1-0.1c0.3-0.1,0.3,0,0.3,0.3
			v0.1c0,0.2-0.1,0.3-0.4,0.4c-0.3,0.1-0.6,0.1-1,0.1c-1.3,0-1.9-0.7-1.9-2v-2.9h-0.7C131.6,49.9,131.6,49.8,131.6,49.5L131.6,49.5z
			"/>
		<path fill="#3A7D9C" d="M138.7,53.4c0.1,0.5,0.3,0.6,0.7,0.6c0.3,0,0.5-0.1,0.6-0.6l1-4c0.1-0.3,0.2-0.4,0.5-0.4h0.1
			c0.3,0,0.4,0.1,0.3,0.4l-1.3,5.3c-0.4,1.5-1.2,2.4-2.3,2.4c-0.3,0-0.4,0-0.4-0.3l0-0.1c-0.1-0.3,0-0.3,0.3-0.3
			c0.8-0.1,1.3-0.6,1.6-1.7c-0.2,0.1-0.3,0.1-0.6,0.1c-0.8,0-1.1-0.4-1.3-1.3l-1.1-4c-0.1-0.3,0-0.4,0.3-0.4h0.1
			c0.3,0,0.4,0.1,0.5,0.4L138.7,53.4z"/>
		<path fill="#3A7D9C" d="M152.2,54.3c0.1,0.3,0,0.4-0.3,0.4h-0.1c-0.3,0-0.4-0.1-0.5-0.4l-0.5-1.9h-3.5l-0.5,1.9
			c-0.1,0.3-0.2,0.4-0.5,0.4h-0.1c-0.3,0-0.4-0.1-0.3-0.4l1.5-5.5c0.2-0.7,0.4-1.1,0.6-1.3c0.2-0.2,0.6-0.4,1-0.4
			c0.5,0,0.8,0.1,1,0.4c0.2,0.2,0.4,0.7,0.6,1.3L152.2,54.3z M147.5,51.6h3l-0.8-2.9c-0.2-0.6-0.3-0.8-0.7-0.8
			c-0.4,0-0.5,0.1-0.7,0.8L147.5,51.6z"/>
		<path fill="#3A7D9C" d="M153.3,54.1c0-0.3,0.1-0.4,0.4-0.3c0.5,0.1,1.1,0.2,1.7,0.2c0.9,0,1.3-0.2,1.3-0.7c0-0.4-0.2-0.6-0.8-0.8
			l-1.4-0.7c-0.7-0.4-1.1-0.7-1.1-1.5c0-1,0.6-1.4,2-1.4c0.5,0,1,0.1,1.4,0.2c0.3,0.1,0.3,0.2,0.3,0.4v0.1c0,0.3-0.1,0.4-0.4,0.3
			c-0.5-0.1-0.9-0.2-1.4-0.2c-0.8,0-1.2,0.2-1.2,0.6c0,0.3,0.2,0.6,0.6,0.8l1.5,0.7c0.8,0.4,1.2,0.7,1.2,1.5c0,1-0.7,1.5-2.2,1.5
			c-0.5,0-1.1-0.1-1.6-0.2C153.4,54.5,153.3,54.4,153.3,54.1L153.3,54.1z"/>
		<path fill="#3A7D9C" d="M158.6,54.1c0-0.3,0.1-0.4,0.4-0.3c0.5,0.1,1.1,0.2,1.7,0.2c0.9,0,1.3-0.2,1.3-0.7c0-0.4-0.2-0.6-0.8-0.8
			l-1.4-0.7c-0.7-0.4-1.1-0.7-1.1-1.5c0-1,0.6-1.4,2-1.4c0.5,0,1,0.1,1.4,0.2c0.3,0.1,0.3,0.2,0.3,0.4v0.1c0,0.3-0.1,0.4-0.4,0.3
			c-0.5-0.1-0.9-0.2-1.4-0.2c-0.8,0-1.2,0.2-1.2,0.6c0,0.3,0.2,0.6,0.6,0.8l1.5,0.7c0.8,0.4,1.2,0.7,1.2,1.5c0,1-0.7,1.5-2.2,1.5
			c-0.5,0-1.1-0.1-1.6-0.2C158.7,54.5,158.6,54.4,158.6,54.1L158.6,54.1z"/>
		<path fill="#3A7D9C" d="M168.7,51.9c0,0.3-0.1,0.4-0.4,0.4h-3.5v0.3c0,1,0.5,1.5,1.8,1.5c0.5,0,1-0.1,1.6-0.2
			c0.3-0.1,0.4,0,0.4,0.3v0.1c0,0.2,0,0.3-0.4,0.4c-0.5,0.1-1,0.2-1.6,0.2c-1.8,0-2.7-0.7-2.7-2.4v-1.1c0-1.6,0.8-2.4,2.4-2.4
			c1.5,0,2.4,0.8,2.4,2.3C168.7,51.5,168.7,51.7,168.7,51.9z M164.8,51.5h3.1v-0.4c0-0.9-0.5-1.4-1.6-1.4c-1,0-1.6,0.5-1.6,1.4V51.5
			z"/>
		<path fill="#3A7D9C" d="M169.8,54.1c0-0.3,0.1-0.4,0.4-0.3c0.5,0.1,1.1,0.2,1.7,0.2c0.9,0,1.3-0.2,1.3-0.7c0-0.4-0.2-0.6-0.8-0.8
			l-1.4-0.7c-0.7-0.4-1.1-0.7-1.1-1.5c0-1,0.6-1.4,2-1.4c0.5,0,1,0.1,1.4,0.2c0.3,0.1,0.3,0.2,0.3,0.4v0.1c0,0.3-0.1,0.4-0.4,0.3
			c-0.5-0.1-0.9-0.2-1.4-0.2c-0.8,0-1.2,0.2-1.2,0.6c0,0.3,0.2,0.6,0.6,0.8l1.5,0.7c0.8,0.4,1.2,0.7,1.2,1.5c0,1-0.7,1.5-2.2,1.5
			c-0.5,0-1.1-0.1-1.6-0.2C169.9,54.5,169.8,54.4,169.8,54.1L169.8,54.1z"/>
		<path fill="#3A7D9C" d="M175.1,54.1c0-0.3,0.1-0.4,0.4-0.3c0.5,0.1,1.1,0.2,1.7,0.2c0.9,0,1.3-0.2,1.3-0.7c0-0.4-0.2-0.6-0.8-0.8
			l-1.4-0.7c-0.7-0.4-1.1-0.7-1.1-1.5c0-1,0.6-1.4,2-1.4c0.5,0,1,0.1,1.4,0.2c0.3,0.1,0.3,0.2,0.3,0.4v0.1c0,0.3-0.1,0.4-0.4,0.3
			c-0.5-0.1-0.9-0.2-1.4-0.2c-0.8,0-1.2,0.2-1.2,0.6c0,0.3,0.2,0.6,0.6,0.8l1.5,0.7c0.8,0.4,1.2,0.7,1.2,1.5c0,1-0.7,1.5-2.2,1.5
			c-0.5,0-1.1-0.1-1.6-0.2C175.2,54.5,175.1,54.4,175.1,54.1L175.1,54.1z"/>
		<path fill="#3A7D9C" d="M181.4,54.3c0,0.3-0.1,0.4-0.4,0.4h-0.1c-0.3,0-0.4-0.1-0.4-0.4v-3.3c0-1.4,0.7-2.1,2.2-2.1
			c0.9,0,1.5,0.3,1.8,1c0.3-0.6,0.9-1,1.8-1c1.5,0,2.2,0.8,2.2,2.1v3.3c0,0.3-0.1,0.4-0.4,0.4H188c-0.3,0-0.4-0.1-0.4-0.4v-3.3
			c0-0.9-0.3-1.3-1.3-1.3c-1,0-1.4,0.4-1.4,1.3v3.3c0,0.3-0.1,0.4-0.4,0.4h-0.1c-0.3,0-0.4-0.1-0.4-0.4v-3.3c0-0.9-0.3-1.3-1.3-1.3
			c-1,0-1.3,0.4-1.3,1.3V54.3z"/>
		<path fill="#3A7D9C" d="M194.6,51.9c0,0.3-0.1,0.4-0.4,0.4h-3.5v0.3c0,1,0.5,1.5,1.8,1.5c0.5,0,1-0.1,1.6-0.2
			c0.3-0.1,0.4,0,0.4,0.3v0.1c0,0.2,0,0.3-0.4,0.4c-0.5,0.1-1,0.2-1.6,0.2c-1.8,0-2.7-0.7-2.7-2.4v-1.1c0-1.6,0.8-2.4,2.4-2.4
			c1.5,0,2.4,0.8,2.4,2.3C194.6,51.5,194.6,51.7,194.6,51.9z M190.7,51.5h3.1v-0.4c0-0.9-0.5-1.4-1.6-1.4c-1,0-1.6,0.5-1.6,1.4V51.5
			z"/>
		<path fill="#3A7D9C" d="M196.7,54.3c0,0.3-0.1,0.4-0.4,0.4h-0.1c-0.3,0-0.4-0.1-0.4-0.4v-3.3c0-1.4,0.8-2.1,2.4-2.1
			c1.7,0,2.4,0.8,2.4,2.1v3.3c0,0.3-0.1,0.4-0.4,0.4h-0.1c-0.3,0-0.4-0.1-0.4-0.4v-3.3c0-0.9-0.4-1.3-1.5-1.3
			c-1.2,0-1.5,0.4-1.5,1.3V54.3z"/>
		<path fill="#3A7D9C" d="M201.6,49.5c0-0.3,0.1-0.3,0.3-0.4l0.7-0.1l0.1-1.2c0-0.2,0.1-0.3,0.3-0.3h0.1c0.2,0,0.3,0.1,0.3,0.3v1.2
			h1.9c0.3,0,0.4,0.1,0.4,0.4v0.1c0,0.3-0.1,0.4-0.4,0.4h-1.9v2.9c0,0.9,0.4,1.2,1.1,1.2c0.4,0,0.8,0,1-0.1c0.3-0.1,0.3,0,0.3,0.3
			v0.1c0,0.2-0.1,0.3-0.4,0.4c-0.3,0.1-0.6,0.1-1,0.1c-1.3,0-1.9-0.7-1.9-2v-2.9h-0.7C201.6,49.9,201.6,49.8,201.6,49.5L201.6,49.5z
			"/>
		<path fill="#3A7D9C" d="M209.6,47.6c0-0.3,0.1-0.4,0.4-0.4h5c0.3,0,0.4,0.1,0.4,0.4v0.1c0,0.3-0.1,0.4-0.4,0.4h-2.1v6.2
			c0,0.3-0.1,0.4-0.4,0.4h-0.1c-0.3,0-0.4-0.1-0.4-0.4v-6.2H210c-0.3,0-0.4-0.1-0.4-0.4V47.6z"/>
		<path fill="#3A7D9C" d="M215.2,52.4v-1.1c0-1.6,0.8-2.4,2.5-2.4c1.8,0,2.5,0.8,2.5,2.4v1.1c0,1.6-0.8,2.4-2.5,2.4
			C216,54.8,215.2,54,215.2,52.4z M219.4,51.4c0-1.1-0.4-1.6-1.7-1.6c-1.3,0-1.7,0.5-1.7,1.6v1.1c0,1.1,0.4,1.6,1.7,1.6
			c1.3,0,1.7-0.5,1.7-1.6V51.4z"/>
		<path fill="#3A7D9C" d="M221.4,52.4v-1.1c0-1.6,0.8-2.4,2.5-2.4c1.8,0,2.5,0.8,2.5,2.4v1.1c0,1.6-0.8,2.4-2.5,2.4
			C222.2,54.8,221.4,54,221.4,52.4z M225.6,51.4c0-1.1-0.4-1.6-1.7-1.6c-1.3,0-1.7,0.5-1.7,1.6v1.1c0,1.1,0.4,1.6,1.7,1.6
			c1.3,0,1.7-0.5,1.7-1.6V51.4z"/>
		<path fill="#3A7D9C" d="M227.8,47c0-0.3,0.1-0.4,0.4-0.4h0.1c0.3,0,0.4,0.1,0.4,0.4v6c0,0.6,0.2,0.9,0.6,0.9h0.1
			c0.3,0,0.4,0,0.4,0.3v0.1c0,0.3-0.1,0.4-0.3,0.4c-0.1,0-0.1,0-0.2,0c-0.8,0-1.3-0.5-1.3-1.5V47z"/>
		<path fill="#3A7D9C" d="M73,64.2c0-0.3,0.1-0.3,0.3-0.4l0.7-0.1v-0.8c0-1.2,0.6-1.8,1.9-1.8c0.3,0,0.6,0,0.9,0.1
			c0.3,0.1,0.4,0.1,0.4,0.4v0.1c0,0.3-0.1,0.4-0.4,0.3c-0.3-0.1-0.6-0.1-0.8-0.1c-0.7,0-1.1,0.3-1.1,0.9v0.9h1.8
			c0.3,0,0.4,0.1,0.4,0.4v0.1c0,0.3-0.1,0.4-0.4,0.4h-1.8V69c0,0.3-0.1,0.4-0.4,0.4h-0.1C74,69.4,74,69.3,74,69v-4.5h-0.7
			C73.1,64.5,73,64.5,73,64.2L73,64.2z"/>
		<path fill="#3A7D9C" d="M77.8,67.1V66c0-1.6,0.8-2.4,2.5-2.4c1.8,0,2.5,0.8,2.5,2.4v1.1c0,1.6-0.8,2.4-2.5,2.4
			C78.6,69.5,77.8,68.7,77.8,67.1z M82,66c0-1.1-0.4-1.6-1.7-1.6c-1.3,0-1.7,0.5-1.7,1.6v1.1c0,1.1,0.4,1.6,1.7,1.6
			c1.3,0,1.7-0.5,1.7-1.6V66z"/>
		<path fill="#3A7D9C" d="M85,69c0,0.3-0.1,0.4-0.4,0.4h-0.1c-0.3,0-0.4-0.1-0.4-0.4v-3.4c0-1.3,0.7-2,2-2c0.1,0,0.3,0,0.4,0
			c0.3,0,0.3,0.1,0.3,0.4v0.1c0,0.3-0.1,0.3-0.4,0.3c-0.1,0-0.3,0-0.4,0c-0.8,0-1.1,0.4-1.1,1.2V69z"/>
		<path fill="#3A7D9C" d="M91.2,62.3c0-0.3,0.1-0.4,0.4-0.4h0.1c0.3,0,0.4,0.1,0.4,0.4V69c0,0.3-0.1,0.4-0.4,0.4h-0.1
			c-0.3,0-0.4-0.1-0.4-0.4V62.3z"/>
		<path fill="#3A7D9C" d="M94.6,69c0,0.3-0.1,0.4-0.4,0.4h-0.1c-0.3,0-0.4-0.1-0.4-0.4v-3.3c0-1.4,0.8-2.1,2.4-2.1
			c1.7,0,2.4,0.8,2.4,2.1V69c0,0.3-0.1,0.4-0.4,0.4H98c-0.3,0-0.4-0.1-0.4-0.4v-3.3c0-0.9-0.4-1.3-1.5-1.3c-1.2,0-1.5,0.4-1.5,1.3
			V69z"/>
		<path fill="#3A7D9C" d="M99.4,64.2c0-0.3,0.1-0.3,0.3-0.4l0.7-0.1l0.1-1.2c0-0.2,0.1-0.3,0.3-0.3h0.1c0.2,0,0.3,0.1,0.3,0.3v1.2
			h1.9c0.3,0,0.4,0.1,0.4,0.4v0.1c0,0.3-0.1,0.4-0.4,0.4h-1.9v2.9c0,0.9,0.4,1.2,1.1,1.2c0.4,0,0.8,0,1-0.1c0.3-0.1,0.3,0,0.3,0.3
			V69c0,0.2-0.1,0.3-0.4,0.4c-0.3,0.1-0.6,0.1-1,0.1c-1.3,0-1.9-0.7-1.9-2v-2.9h-0.7C99.5,64.5,99.4,64.5,99.4,64.2L99.4,64.2z"/>
		<path fill="#3A7D9C" d="M109.3,66.5c0,0.3-0.1,0.4-0.4,0.4h-3.5v0.3c0,1,0.5,1.5,1.8,1.5c0.5,0,1-0.1,1.6-0.2
			c0.3-0.1,0.4,0,0.4,0.3v0.1c0,0.2,0,0.3-0.4,0.4c-0.5,0.1-1,0.2-1.6,0.2c-1.8,0-2.7-0.7-2.7-2.4V66c0-1.6,0.8-2.4,2.4-2.4
			c1.5,0,2.4,0.8,2.4,2.3C109.4,66.2,109.3,66.4,109.3,66.5z M105.4,66.2h3.1v-0.4c0-0.9-0.5-1.4-1.6-1.4c-1,0-1.6,0.5-1.6,1.4V66.2
			z"/>
		<path fill="#3A7D9C" d="M111.5,69c0,0.3-0.1,0.4-0.4,0.4H111c-0.3,0-0.4-0.1-0.4-0.4v-3.4c0-1.3,0.7-2,2-2c0.1,0,0.3,0,0.4,0
			c0.3,0,0.3,0.1,0.3,0.4v0.1c0,0.3-0.1,0.3-0.4,0.3c-0.1,0-0.3,0-0.4,0c-0.8,0-1.1,0.4-1.1,1.2V69z"/>
		<path fill="#3A7D9C" d="M115,69c0,0.3-0.1,0.4-0.4,0.4h-0.1c-0.3,0-0.4-0.1-0.4-0.4v-3.3c0-1.4,0.8-2.1,2.4-2.1
			c1.7,0,2.4,0.8,2.4,2.1V69c0,0.3-0.1,0.4-0.4,0.4h-0.1c-0.3,0-0.4-0.1-0.4-0.4v-3.3c0-0.9-0.4-1.3-1.5-1.3c-1.2,0-1.5,0.4-1.5,1.3
			V69z"/>
		<path fill="#3A7D9C" d="M124.7,67.7c0,1.3-0.8,1.8-2.4,1.8c-1.3,0-2.2-0.5-2.2-1.7c0-1.2,0.8-1.7,2.4-1.7h1.4v-0.7
			c0-0.8-0.5-1-1.5-1c-0.5,0-0.9,0-1.3,0.1c-0.3,0.1-0.4,0-0.4-0.3v-0.1c0-0.3,0.1-0.3,0.3-0.4c0.4-0.1,0.8-0.1,1.2-0.1
			c1.6,0,2.4,0.6,2.4,1.8V67.7z M123.9,66.8h-1.4c-1,0-1.5,0.3-1.5,1c0,0.7,0.4,1,1.3,1c1.1,0,1.6-0.2,1.6-1.1V66.8z"/>
		<path fill="#3A7D9C" d="M125.6,64.2c0-0.3,0.1-0.3,0.3-0.4l0.7-0.1l0.1-1.2c0-0.2,0.1-0.3,0.3-0.3h0.1c0.2,0,0.3,0.1,0.3,0.3v1.2
			h1.9c0.3,0,0.4,0.1,0.4,0.4v0.1c0,0.3-0.1,0.4-0.4,0.4h-1.9v2.9c0,0.9,0.4,1.2,1.1,1.2c0.4,0,0.8,0,1-0.1c0.3-0.1,0.3,0,0.3,0.3
			V69c0,0.2-0.1,0.3-0.4,0.4c-0.3,0.1-0.6,0.1-1,0.1c-1.3,0-1.9-0.7-1.9-2v-2.9h-0.7C125.7,64.5,125.6,64.5,125.6,64.2L125.6,64.2z"
			/>
		<path fill="#3A7D9C" d="M132,62c0,0.3-0.2,0.6-0.6,0.6c-0.3,0-0.6-0.2-0.6-0.6c0-0.3,0.3-0.6,0.6-0.6C131.8,61.4,132,61.6,132,62z
			 M131,64.1c0-0.3,0.1-0.4,0.4-0.4h0.1c0.3,0,0.4,0.1,0.4,0.4V69c0,0.3-0.1,0.4-0.4,0.4h-0.1c-0.3,0-0.4-0.1-0.4-0.4V64.1z"/>
		<path fill="#3A7D9C" d="M133.2,67.1V66c0-1.6,0.8-2.4,2.5-2.4c1.8,0,2.5,0.8,2.5,2.4v1.1c0,1.6-0.8,2.4-2.5,2.4
			C134,69.5,133.2,68.7,133.2,67.1z M137.4,66c0-1.1-0.4-1.6-1.7-1.6c-1.3,0-1.7,0.5-1.7,1.6v1.1c0,1.1,0.4,1.6,1.7,1.6
			c1.3,0,1.7-0.5,1.7-1.6V66z"/>
		<path fill="#3A7D9C" d="M140.4,69c0,0.3-0.1,0.4-0.4,0.4h-0.1c-0.3,0-0.4-0.1-0.4-0.4v-3.3c0-1.4,0.8-2.1,2.4-2.1
			c1.7,0,2.4,0.8,2.4,2.1V69c0,0.3-0.1,0.4-0.4,0.4h-0.1c-0.3,0-0.4-0.1-0.4-0.4v-3.3c0-0.9-0.4-1.3-1.5-1.3c-1.2,0-1.5,0.4-1.5,1.3
			V69z"/>
		<path fill="#3A7D9C" d="M150.1,67.7c0,1.3-0.8,1.8-2.4,1.8c-1.3,0-2.2-0.5-2.2-1.7c0-1.2,0.8-1.7,2.4-1.7h1.4v-0.7
			c0-0.8-0.5-1-1.5-1c-0.5,0-0.9,0-1.3,0.1c-0.3,0.1-0.4,0-0.4-0.3v-0.1c0-0.3,0.1-0.3,0.3-0.4c0.4-0.1,0.8-0.1,1.2-0.1
			c1.6,0,2.4,0.6,2.4,1.8V67.7z M149.3,66.8h-1.4c-1,0-1.5,0.3-1.5,1c0,0.7,0.4,1,1.3,1c1.1,0,1.6-0.2,1.6-1.1V66.8z"/>
		<path fill="#3A7D9C" d="M151.5,61.7c0-0.3,0.1-0.4,0.4-0.4h0.1c0.3,0,0.4,0.1,0.4,0.4v6c0,0.6,0.2,0.9,0.6,0.9h0.1
			c0.3,0,0.4,0,0.4,0.3V69c0,0.3-0.1,0.4-0.3,0.4c-0.1,0-0.1,0-0.2,0c-0.8,0-1.3-0.5-1.3-1.5V61.7z"/>
		<path fill="#3A7D9C" d="M158.3,66.6c0,1.3,0.6,2,2,2c0.6,0,1.2-0.1,1.7-0.3c0.3-0.1,0.3,0,0.3,0.3v0.1c0,0.2-0.1,0.3-0.3,0.5
			c-0.4,0.2-1,0.3-1.6,0.3c-2,0-3-0.9-3-2.9v-1.8c0-2,0.9-3,2.9-3c0.6,0,1.1,0.1,1.6,0.3c0.3,0.1,0.3,0.2,0.3,0.4v0.1
			c0,0.3-0.1,0.4-0.4,0.3c-0.5-0.2-1-0.3-1.6-0.3c-1.4,0-2,0.7-2,2.1V66.6z"/>
		<path fill="#3A7D9C" d="M163.4,67.1V66c0-1.6,0.8-2.4,2.5-2.4c1.8,0,2.5,0.8,2.5,2.4v1.1c0,1.6-0.8,2.4-2.5,2.4
			C164.1,69.5,163.4,68.7,163.4,67.1z M167.6,66c0-1.1-0.4-1.6-1.7-1.6c-1.3,0-1.7,0.5-1.7,1.6v1.1c0,1.1,0.4,1.6,1.7,1.6
			c1.3,0,1.7-0.5,1.7-1.6V66z"/>
		<path fill="#3A7D9C" d="M169.6,67.1V66c0-1.6,0.8-2.4,2.5-2.4c1.8,0,2.5,0.8,2.5,2.4v1.1c0,1.6-0.8,2.4-2.5,2.4
			C170.3,69.5,169.6,68.7,169.6,67.1z M173.8,66c0-1.1-0.4-1.6-1.7-1.6c-1.3,0-1.7,0.5-1.7,1.6v1.1c0,1.1,0.4,1.6,1.7,1.6
			c1.3,0,1.7-0.5,1.7-1.6V66z"/>
		<path fill="#3A7D9C" d="M176,66c0-1.6,0.8-2.4,2.5-2.4c1.7,0,2.5,0.8,2.5,2.4v1.1c0,1.6-0.8,2.4-2.4,2.4c-0.9,0-1.5-0.3-1.8-0.8
			v2.7c0,0.3-0.1,0.4-0.4,0.4h-0.1c-0.3,0-0.4-0.1-0.4-0.4V66z M180.2,66c0-1.1-0.4-1.6-1.7-1.6c-1.3,0-1.7,0.5-1.7,1.6v1.1
			c0,1.1,0.4,1.6,1.7,1.6c1.3,0,1.7-0.5,1.7-1.6V66z"/>
		<path fill="#3A7D9C" d="M187,66.5c0,0.3-0.1,0.4-0.4,0.4h-3.5v0.3c0,1,0.5,1.5,1.8,1.5c0.5,0,1-0.1,1.6-0.2c0.3-0.1,0.4,0,0.4,0.3
			v0.1c0,0.2,0,0.3-0.4,0.4c-0.5,0.1-1,0.2-1.6,0.2c-1.8,0-2.7-0.7-2.7-2.4V66c0-1.6,0.8-2.4,2.4-2.4c1.5,0,2.4,0.8,2.4,2.3
			C187,66.2,187,66.4,187,66.5z M183.1,66.2h3.1v-0.4c0-0.9-0.5-1.4-1.6-1.4c-1,0-1.6,0.5-1.6,1.4V66.2z"/>
		<path fill="#3A7D9C" d="M189.1,69c0,0.3-0.1,0.4-0.4,0.4h-0.1c-0.3,0-0.4-0.1-0.4-0.4v-3.4c0-1.3,0.7-2,2-2c0.1,0,0.3,0,0.4,0
			c0.3,0,0.3,0.1,0.3,0.4v0.1c0,0.3-0.1,0.3-0.4,0.3c-0.1,0-0.3,0-0.4,0c-0.8,0-1.1,0.4-1.1,1.2V69z"/>
		<path fill="#3A7D9C" d="M196.2,67.7c0,1.3-0.8,1.8-2.4,1.8c-1.3,0-2.2-0.5-2.2-1.7c0-1.2,0.8-1.7,2.4-1.7h1.4v-0.7
			c0-0.8-0.5-1-1.5-1c-0.5,0-0.9,0-1.3,0.1c-0.3,0.1-0.4,0-0.4-0.3v-0.1c0-0.3,0.1-0.3,0.3-0.4c0.4-0.1,0.8-0.1,1.2-0.1
			c1.6,0,2.4,0.6,2.4,1.8V67.7z M195.3,66.8h-1.4c-1,0-1.5,0.3-1.5,1c0,0.7,0.4,1,1.3,1c1.1,0,1.6-0.2,1.6-1.1V66.8z"/>
		<path fill="#3A7D9C" d="M197.1,64.2c0-0.3,0.1-0.3,0.3-0.4l0.7-0.1l0.1-1.2c0-0.2,0.1-0.3,0.3-0.3h0.1c0.2,0,0.3,0.1,0.3,0.3v1.2
			h1.9c0.3,0,0.4,0.1,0.4,0.4v0.1c0,0.3-0.1,0.4-0.4,0.4h-1.9v2.9c0,0.9,0.4,1.2,1.1,1.2c0.4,0,0.8,0,1-0.1c0.3-0.1,0.3,0,0.3,0.3
			V69c0,0.2-0.1,0.3-0.4,0.4c-0.3,0.1-0.6,0.1-1,0.1c-1.3,0-1.9-0.7-1.9-2v-2.9h-0.7C197.1,64.5,197.1,64.5,197.1,64.2L197.1,64.2z"
			/>
		<path fill="#3A7D9C" d="M203.4,62c0,0.3-0.2,0.6-0.6,0.6c-0.3,0-0.6-0.2-0.6-0.6c0-0.3,0.3-0.6,0.6-0.6
			C203.2,61.4,203.4,61.6,203.4,62z M202.5,64.1c0-0.3,0.1-0.4,0.4-0.4h0.1c0.3,0,0.4,0.1,0.4,0.4V69c0,0.3-0.1,0.4-0.4,0.4h-0.1
			c-0.3,0-0.4-0.1-0.4-0.4V64.1z"/>
		<path fill="#3A7D9C" d="M204.6,67.1V66c0-1.6,0.8-2.4,2.5-2.4c1.8,0,2.5,0.8,2.5,2.4v1.1c0,1.6-0.8,2.4-2.5,2.4
			C205.4,69.5,204.6,68.7,204.6,67.1z M208.8,66c0-1.1-0.4-1.6-1.7-1.6c-1.3,0-1.7,0.5-1.7,1.6v1.1c0,1.1,0.4,1.6,1.7,1.6
			c1.3,0,1.7-0.5,1.7-1.6V66z"/>
		<path fill="#3A7D9C" d="M211.9,69c0,0.3-0.1,0.4-0.4,0.4h-0.1c-0.3,0-0.4-0.1-0.4-0.4v-3.3c0-1.4,0.8-2.1,2.4-2.1
			c1.7,0,2.4,0.8,2.4,2.1V69c0,0.3-0.1,0.4-0.4,0.4h-0.1c-0.3,0-0.4-0.1-0.4-0.4v-3.3c0-0.9-0.4-1.3-1.5-1.3c-1.2,0-1.5,0.4-1.5,1.3
			V69z"/>
	</g>
</g>
</svg>
